<svg width="16" height="16" viewBox="0 0 16 16" fill="none" xmlns="http://www.w3.org/2000/svg">
<g clip-path="url(#clip0_1587_64115)">
<path d="M5.09999 13.9397C5.07999 13.9397 5.05333 13.9531 5.03333 13.9531C3.73999 13.3131 2.68666 12.2531 2.03999 10.9597C2.03999 10.9397 2.05333 10.9131 2.05333 10.8931C2.86666 11.1331 3.70666 11.3131 4.53999 11.4531C4.68666 12.2931 4.85999 13.1264 5.09999 13.9397Z" fill="#E4E5E9"/>
<path d="M13.96 10.9664C13.3 12.2931 12.2 13.3664 10.86 14.0131C11.1133 13.1664 11.3267 12.3131 11.4667 11.4531C12.3067 11.3131 13.1333 11.1331 13.9467 10.8931C13.94 10.9197 13.96 10.9464 13.96 10.9664Z" fill="#E4E5E9"/>
<path d="M14.0133 5.14015C13.1733 4.88682 12.3267 4.68015 11.4667 4.53348C11.3267 3.67348 11.12 2.82015 10.86 1.98682C12.24 2.64682 13.3533 3.76015 14.0133 5.14015Z" fill="#E4E5E9"/>
<path d="M5.1 2.06004C4.86 2.87337 4.68666 3.70004 4.54666 4.54004C3.68666 4.67337 2.83333 4.88671 1.98666 5.14004C2.63333 3.80004 3.70666 2.70004 5.03333 2.04004C5.05333 2.04004 5.08 2.06004 5.1 2.06004Z" fill="#E4E5E9"/>
<path d="M10.3267 4.3935C8.77999 4.22016 7.21999 4.22016 5.67332 4.3935C5.83999 3.48016 6.05332 2.56683 6.35332 1.68683C6.36666 1.6335 6.35999 1.5935 6.36666 1.54016C6.89332 1.4135 7.43332 1.3335 7.99999 1.3335C8.55999 1.3335 9.10666 1.4135 9.62666 1.54016C9.63332 1.5935 9.63332 1.6335 9.64666 1.68683C9.94666 2.5735 10.16 3.48016 10.3267 4.3935Z" fill="#E4E5E9"/>
<path d="M4.39333 10.3267C3.47333 10.16 2.56666 9.94667 1.68666 9.64667C1.63333 9.63334 1.59333 9.64001 1.53999 9.63334C1.41333 9.10667 1.33333 8.56667 1.33333 8.00001C1.33333 7.44001 1.41333 6.89334 1.53999 6.37334C1.59333 6.36667 1.63333 6.36667 1.68666 6.35334C2.57333 6.06001 3.47333 5.84001 4.39333 5.67334C4.22666 7.22001 4.22666 8.78001 4.39333 10.3267Z" fill="#E4E5E9"/>
<path d="M14.6667 8.00001C14.6667 8.56667 14.5867 9.10667 14.46 9.63334C14.4067 9.64001 14.3667 9.63334 14.3133 9.64667C13.4267 9.94001 12.52 10.16 11.6067 10.3267C11.78 8.78001 11.78 7.22001 11.6067 5.67334C12.52 5.84001 13.4333 6.05334 14.3133 6.35334C14.3667 6.36667 14.4067 6.37334 14.46 6.37334C14.5867 6.90001 14.6667 7.44001 14.6667 8.00001Z" fill="#E4E5E9"/>
<path d="M10.3267 11.6069C10.16 12.5269 9.94666 13.4336 9.64666 14.3136C9.63332 14.3669 9.63332 14.4069 9.62666 14.4603C9.10666 14.5869 8.55999 14.6669 7.99999 14.6669C7.43332 14.6669 6.89332 14.5869 6.36666 14.4603C6.35999 14.4069 6.36666 14.3669 6.35332 14.3136C6.05999 13.4269 5.83999 12.5269 5.67332 11.6069C6.44666 11.6936 7.21999 11.7536 7.99999 11.7536C8.77999 11.7536 9.55999 11.6936 10.3267 11.6069Z" fill="#E4E5E9"/>
<path d="M10.5089 10.509C8.84148 10.7194 7.1585 10.7194 5.49111 10.509C5.28074 8.84165 5.28074 7.15867 5.49111 5.49128C7.1585 5.2809 8.84148 5.2809 10.5089 5.49128C10.7193 7.15867 10.7193 8.84165 10.5089 10.509Z" fill="#E4E5E9"/>
</g>
<defs>
<clipPath id="clip0_1587_64115">
<rect width="16" height="16" fill="white"/>
</clipPath>
</defs>
</svg>
