<svg width="20" height="20" viewBox="0 0 20 20" fill="none" xmlns="http://www.w3.org/2000/svg">
<path d="M7.94876 16.869L9.02114 17.1888L8.54389 16.1766C7.7687 14.5325 7.29338 12.7191 7.18864 10.8063L7.16275 10.3337H6.68938H3.38487H2.81865L2.88871 10.8955C3.24373 13.7425 5.26694 16.0693 7.94876 16.869ZM8.35888 10.3337H7.82709L7.85982 10.8644C7.98985 12.9729 8.59232 14.9541 9.56276 16.7029L9.99996 17.4908L10.4372 16.7029C11.4076 14.9541 12.0101 12.9729 12.1401 10.8644L12.1728 10.3337H11.641H8.35888ZM17.1112 10.8955L17.1813 10.3337H16.615H13.3105H12.8372L12.8113 10.8063C12.7066 12.7191 12.2312 14.5325 11.456 16.1766L10.9788 17.1888L12.0512 16.869C14.733 16.0693 16.7562 13.7425 17.1112 10.8955ZM2.88871 9.10512L2.81865 9.66699H3.38487H6.68938H7.16275L7.18864 9.19433C7.29338 7.28148 7.76871 5.46809 8.54389 3.82403L9.02115 2.81183L7.94875 3.13165C5.26694 3.93142 3.24373 6.25811 2.88871 9.10512ZM7.85982 9.13622L7.82709 9.66699H8.35888H11.641H12.1728L12.1401 9.13622C12.0101 7.02781 11.4076 5.04649 10.4372 3.29771L9.99996 2.50986L9.56276 3.29771C8.59232 5.04649 7.98985 7.02781 7.85982 9.13622ZM12.0512 3.13165L10.9788 2.81182L11.456 3.82403C12.2312 5.46809 12.7066 7.28148 12.8113 9.19433L12.8372 9.66699H13.3105H16.615H17.1813L17.1112 9.10512C16.7562 6.25811 14.733 3.93142 12.0512 3.13165ZM9.99996 17.8337C5.67373 17.8337 2.16663 14.3265 2.16663 10.0003C2.16663 5.67409 5.67373 2.16699 9.99996 2.16699C14.3262 2.16699 17.8333 5.67409 17.8333 10.0003C17.8333 14.3265 14.3262 17.8337 9.99996 17.8337Z" fill="white" stroke="white"/>
</svg>
